<svg width="97" height="97" xmlns="http://www.w3.org/2000/svg" xmlns:xlink="http://www.w3.org/1999/xlink" overflow="hidden"><defs><clipPath id="clip0"><rect x="198" y="259" width="97" height="97"/></clipPath><clipPath id="clip1"><rect x="199" y="259" width="96" height="96"/></clipPath><clipPath id="clip2"><rect x="199" y="259" width="96" height="96"/></clipPath><clipPath id="clip3"><rect x="199" y="259" width="96" height="96"/></clipPath><clipPath id="clip4"><rect x="220" y="282" width="49" height="49"/></clipPath><clipPath id="clip5"><rect x="220" y="282" width="49" height="49"/></clipPath><clipPath id="clip6"><rect x="220" y="282" width="49" height="49"/></clipPath></defs><g clip-path="url(#clip0)" transform="translate(-198 -259)"><g clip-path="url(#clip1)"><g clip-path="url(#clip2)"><g clip-path="url(#clip3)"><path d="M249.87 268.3C257.045 276.158 266.935 280.999 277.542 281.846 279.513 282.031 281.014 283.692 281 285.671L281 295.325C281 316.31 267.653 335.508 249.121 347.387 247.848 348.204 246.215 348.204 244.942 347.387 226.41 335.508 213.063 316.31 213.063 295.325L213.063 285.671C213.049 283.692 214.551 282.031 216.521 281.846 227.128 280.999 237.018 276.158 244.193 268.3 245.546 266.732 247.913 266.558 249.481 267.911 249.62 268.031 249.75 268.161 249.87 268.3Z" stroke="#FF0000" stroke-width="4"/></g></g></g><g clip-path="url(#clip4)"><g clip-path="url(#clip5)"><g clip-path="url(#clip6)"><path d="M5.3849 43.3854C6.78012 44.7808 9.04239 44.7809 10.4378 43.3857 10.4379 43.3856 10.4379 43.3855 10.438 43.3854L16.8438 36.9797C17.676 36.1468 18.0445 34.9573 17.8289 33.7998L20.0594 31.5438C26.7964 36.7021 36.4395 35.4224 41.5979 28.6854 46.7563 21.9484 45.4765 12.3053 38.7396 7.14691 32.0025 1.98854 22.3594 3.26826 17.201 10.0052 12.9809 15.5169 12.9809 23.1737 17.201 28.6854L14.945 30.9415C13.7875 30.7258 12.598 31.0943 11.7651 31.9266L5.3849 38.3068C3.98247 39.695 3.97089 41.9572 5.35907 43.3596 5.36764 43.3682 5.37622 43.3768 5.3849 43.3854ZM17.099 19.3958C17.099 12.6304 22.5835 7.14583 29.349 7.14583 36.1144 7.14583 41.599 12.6304 41.599 19.3958 41.599 26.1613 36.1144 31.6458 29.349 31.6458 22.5916 31.6262 17.1186 26.1532 17.099 19.3958Z" stroke="#FF0000" stroke-width="0.377682" fill="#FF0000" transform="matrix(-1 0 0 1 269 282)"/><path d="M37.2604 22.6829 34.9278 20.3707C34.8461 20.3086 34.7491 20.2698 34.6471 20.2584L33.2077 20.2584C33.1567 19.9522 33.1005 19.6408 33.0342 19.3397L34.9023 18.9824C35.1323 18.9397 35.3138 18.7623 35.3617 18.5332L36.1426 15.0063C36.2206 14.6916 36.0287 14.3733 35.7141 14.2953 35.7089 14.294 35.7038 14.2928 35.6985 14.2917 35.3882 14.2201 35.0785 14.4137 35.0069 14.7241 35.0061 14.728 35.0052 14.7319 35.0044 14.7357L34.3051 17.8901 32.7126 18.1912C32.6232 17.8971 32.4963 17.6158 32.3349 17.3542L26.363 17.3542C26.2005 17.6206 26.0735 17.9072 25.9853 18.2066L24.3928 17.9054 23.6986 14.751C23.6048 14.4407 23.2772 14.2652 22.9669 14.359 22.6904 14.4426 22.5158 14.715 22.5553 15.0011L23.3363 18.5281C23.3866 18.7558 23.5669 18.9321 23.7956 18.9773L25.6637 19.3346C25.5974 19.6357 25.5413 19.9471 25.4953 20.2533L24.0355 20.2533C23.9317 20.2635 23.8327 20.3024 23.7497 20.3656L21.4375 22.6829C21.1796 22.876 21.127 23.2417 21.3201 23.4996 21.5132 23.7575 21.8789 23.8101 22.1368 23.617L24.3418 21.3967 25.3626 21.3967C25.3626 21.5702 25.3626 21.7233 25.3626 21.856 25.3643 22.1603 25.4003 22.4633 25.4698 22.7595L23.9794 23.1321C23.7904 23.1786 23.6371 23.3165 23.571 23.4996L22.3511 26.8377C22.2412 27.1407 22.3962 27.4756 22.6982 27.588 22.7624 27.6097 22.8295 27.6218 22.8973 27.6238 23.1431 27.6242 23.363 27.4714 23.4485 27.2409L24.5613 24.1784 25.9088 23.8416C26.503 24.8509 27.5145 25.5446 28.6701 25.7352L28.859 25.674 28.859 21.4375C28.859 21.1556 29.0875 20.9271 29.3694 20.9271 29.6513 20.9271 29.8798 21.1556 29.8798 21.4375L29.8798 25.6842 30.0686 25.7454C31.2254 25.5575 32.2379 24.8631 32.83 23.8518L34.1775 24.1886 35.2953 27.2511C35.3776 27.4818 35.5966 27.6352 35.8415 27.634 35.9092 27.632 35.9763 27.6199 36.0405 27.5982 36.3426 27.4858 36.4975 27.1509 36.3876 26.8479L35.1473 23.4792C35.0812 23.2961 34.928 23.1582 34.739 23.1117L33.2485 22.7391C33.3181 22.4429 33.354 22.1398 33.3557 21.8356 33.3557 21.7029 33.3557 21.5498 33.3557 21.3763L34.3766 21.3763 36.5816 23.5966C36.7939 23.8377 37.1617 23.8611 37.4028 23.6487 37.644 23.4363 37.6673 23.0686 37.4549 22.8275 37.4009 22.7662 37.3347 22.7169 37.2604 22.6829Z" stroke="#FF0000" stroke-width="0.377682" fill="#FF0000" transform="matrix(-1 0 0 1 269 282)"/><path d="M32.3808 10.9433C32.5687 10.8496 32.6479 10.6234 32.5595 10.4329 32.4621 10.2491 32.2383 10.173 32.0491 10.2594 31.5573 10.5095 31.1414 10.8867 30.8445 11.3517 30.6287 11.6926 30.4572 12.0597 30.3341 12.444 29.7143 12.1989 29.0245 12.1989 28.4047 12.444 28.2859 12.058 28.1141 11.6904 27.8943 11.3517 27.5985 10.8857 27.1823 10.5083 26.6897 10.2594 26.5006 10.1702 26.2748 10.247 26.1793 10.4329 26.0872 10.6219 26.1647 10.8497 26.3528 10.9433 26.7043 11.1297 27.0015 11.4041 27.2154 11.7396 27.427 12.0695 27.5839 12.4315 27.6799 12.8115 26.7707 13.5426 26.2553 14.6566 26.2865 15.8229 26.288 15.9936 26.2999 16.1641 26.3222 16.3333L32.3757 16.3333C32.398 16.1641 32.4099 15.9936 32.4115 15.8229 32.4355 14.6639 31.9208 13.5592 31.018 12.8319 31.114 12.4519 31.2709 12.0899 31.4825 11.76 31.7035 11.4123 32.0137 11.1302 32.3808 10.9433Z" stroke="#FF0000" stroke-width="0.377682" fill="#FF0000" transform="matrix(-1 0 0 1 269 282)"/></g></g></g></g></svg>