<svg width="85" height="84" xmlns="http://www.w3.org/2000/svg" xmlns:xlink="http://www.w3.org/1999/xlink" overflow="hidden"><defs><clipPath id="clip0"><rect x="601" y="43" width="85" height="84"/></clipPath><clipPath id="clip1"><rect x="602" y="43" width="83" height="84"/></clipPath><clipPath id="clip2"><rect x="602" y="43" width="83" height="84"/></clipPath><clipPath id="clip3"><rect x="602" y="43" width="83" height="84"/></clipPath><clipPath id="clip4"><rect x="624" y="75" width="39" height="39"/></clipPath><clipPath id="clip5"><rect x="624" y="75" width="39" height="39"/></clipPath><clipPath id="clip6"><rect x="624" y="75" width="39" height="39"/></clipPath></defs><g clip-path="url(#clip0)" transform="translate(-601 -43)"><g clip-path="url(#clip1)"><g clip-path="url(#clip2)"><g clip-path="url(#clip3)"><path d="M31.1336 24.2083 51.8456 24.2083 56.9294 11.9001C57.1565 11.3591 57.0913 10.7393 56.7564 10.2574 56.2853 9.62852 55.4261 9.43693 54.7324 9.8061L48.4063 12.9688 42.2626 9.89688C41.7757 9.65342 41.2027 9.65342 40.7158 9.89688L34.573 12.9688 28.2278 9.80005C27.6217 9.47151 26.8723 9.57673 26.3802 10.0594 25.9188 10.5534 25.7893 11.2717 26.049 11.8958Z" stroke="#000000" stroke-width="0.864583" fill="#FFFFFF" transform="matrix(1 0 0 1.01205 602 43)"/><path d="M35.4764 47.1769C36.6859 47.1769 37.6664 46.1963 37.6664 44.9869 37.6664 43.7774 36.6859 42.7969 35.4764 42.7969 34.267 42.7969 33.2865 43.7774 33.2865 44.9869 33.2879 46.1958 34.2675 47.1754 35.4764 47.1769Z" stroke="#000000" stroke-width="0.864583" fill="#FFFFFF" transform="matrix(1 0 0 1.01205 602 43)"/><path d="M47.5236 54.844C46.3141 54.844 45.3336 55.8245 45.3336 57.034 45.3336 58.2434 46.3141 59.224 47.5236 59.224 48.733 59.224 49.7135 58.2434 49.7135 57.034 49.7121 55.825 48.7325 54.8454 47.5236 54.844Z" stroke="#000000" stroke-width="0.864583" fill="#FFFFFF" transform="matrix(1 0 0 1.01205 602 43)"/><path d="M52.2597 27.6667 30.7403 27.6667C21.5368 36.5468 12.1042 43.1557 12.1042 55.3333 12.1042 63.8002 15.8521 69.3162 23.8245 72.127 24.7581 72.4565 25.7411 72.6249 26.7312 72.625L56.2688 72.625C57.2589 72.6249 58.2419 72.4565 59.1755 72.127 67.1479 69.3162 70.8958 63.8002 70.8958 55.3333 70.8958 43.1557 61.4632 36.5468 52.2597 27.6667ZM35.4764 40.2031C38.1184 40.2031 40.2602 42.3449 40.2602 44.9869 40.2602 47.6289 38.1184 49.7706 35.4764 49.7706 32.8345 49.7706 30.6927 47.6289 30.6927 44.9869 30.6961 42.3463 32.8358 40.2065 35.4764 40.2031ZM31.7069 58.9698 49.1421 41.5337 50.9758 43.3675 33.5406 60.8036ZM47.5236 61.8177C44.8816 61.8177 42.7398 59.676 42.7398 57.034 42.7398 54.392 44.8816 52.2502 47.5236 52.2502 50.1655 52.2502 52.3073 54.392 52.3073 57.034 52.3039 59.6746 50.1642 61.8143 47.5236 61.8177Z" stroke="#000000" stroke-width="0.864583" fill="#FFFFFF" transform="matrix(1 0 0 1.01205 602 43)"/></g></g></g><rect x="627" y="80" width="35" height="29" fill="#FFFFFF"/><g clip-path="url(#clip4)"><g clip-path="url(#clip5)"><g clip-path="url(#clip6)"><path d="M656.662 91.1769C655.444 90.5716 653.997 90.5553 652.645 90.7706 652.244 89.9302 651.751 89.1372 651.174 88.4062 652.324 87.4353 653.754 86.5619 655.062 86.6228 655.511 86.6419 655.89 86.2936 655.909 85.8448 655.928 85.3961 655.58 85.0169 655.131 84.9978L654.944 84.9978C653.132 84.9978 651.385 86.0947 650.069 87.2038 649.825 86.9681 649.573 86.7447 649.313 86.5375 649.339 86.3763 649.353 86.2133 649.354 86.05 649.354 84.0188 647.729 82.3044 645.482 81.6178 645.541 81.4707 645.622 81.3337 645.722 81.2116 646.169 80.6509 647.03 80.3991 648.282 80.5047 648.73 80.5361 649.12 80.1978 649.151 79.7491 649.182 79.3003 648.844 78.9111 648.395 78.8797 646.575 78.7538 645.247 79.1966 644.447 80.2041 644.181 80.5407 643.984 80.9256 643.866 81.3375 643.687 81.3375 643.504 81.3172 643.321 81.3172 643.01 81.3189 642.7 81.3392 642.391 81.3781 642.274 80.951 642.072 80.5517 641.798 80.2041 640.985 79.1966 639.669 78.7497 637.849 78.8797 637.4 78.9122 637.063 79.3024 637.095 79.7511 637.128 80.1998 637.518 80.5372 637.967 80.5047 639.21 80.4112 640.075 80.6509 640.522 81.2116 640.649 81.3739 640.744 81.5586 640.802 81.7559 638.731 82.5075 637.288 84.1528 637.288 86.0703 637.29 86.3037 637.315 86.5364 637.362 86.765 637.126 86.9681 636.898 87.1712 636.675 87.4069 635.314 86.2288 633.425 85.0181 631.508 85.1034 631.059 85.1225 630.71 85.5017 630.73 85.9505 630.749 86.3992 631.128 86.7475 631.577 86.7284 632.929 86.6716 634.42 87.6222 635.607 88.6419 635.073 89.3538 634.614 90.1189 634.237 90.925 632.82 90.6609 631.268 90.6406 629.98 91.2825 629.572 91.4698 629.393 91.9522 629.581 92.36 629.768 92.7677 630.251 92.9465 630.658 92.7592 630.673 92.7522 630.688 92.7448 630.703 92.7369 631.633 92.353 632.657 92.2595 633.64 92.4688 633.167 93.9456 632.929 95.4881 632.938 97.0391 632.927 99.2945 633.446 101.521 634.453 103.539 633.303 104.352 632.243 105.404 631.8 106.728 631.655 107.154 631.884 107.617 632.31 107.762 632.736 107.907 633.199 107.678 633.344 107.252 633.636 106.367 634.396 105.595 635.282 104.957 637.195 107.821 640.157 109.653 643.5 109.653 646.843 109.653 649.699 107.862 651.625 105.062 652.384 105.588 652.972 106.324 653.319 107.179 653.464 107.609 653.929 107.84 654.359 107.695 654.789 107.55 655.02 107.085 654.875 106.655 654.396 105.434 653.559 104.386 652.474 103.649 653.524 101.604 654.069 99.3376 654.062 97.0391 654.066 95.4385 653.808 93.8481 653.299 92.3306 654.195 92.1715 655.118 92.2759 655.956 92.6312 656.356 92.8313 656.843 92.6696 657.044 92.2697 657.242 91.8669 657.076 91.38 656.673 91.1822 656.67 91.1804 656.666 91.1786 656.662 91.1769ZM636.533 98.5219C635.72 98.5219 635.07 97.7094 635.07 96.6937 635.07 95.6781 635.724 94.8656 636.533 94.8656 637.341 94.8656 637.995 95.6781 637.995 96.6937 637.995 97.7094 637.341 98.5219 636.533 98.5219ZM640.112 103.803C639.462 104.283 638.645 104.278 638.284 103.803 637.922 103.328 638.158 102.532 638.804 102.052 639.45 101.573 640.27 101.577 640.632 102.052 640.993 102.527 640.762 103.312 640.112 103.791ZM639.844 92.4688C639.058 92.4688 638.422 91.8322 638.422 91.0469 638.422 90.2616 639.058 89.625 639.844 89.625 640.629 89.625 641.266 90.2616 641.266 91.0469 641.266 91.8322 640.629 92.4688 639.844 92.4688ZM644.312 107.979C643.771 108.012 643.229 108.012 642.688 107.979L642.688 86.7812 644.312 86.7812ZM646.059 91.0469C646.059 90.2616 646.696 89.625 647.481 89.625 648.267 89.625 648.903 90.2616 648.903 91.0469 648.903 91.8322 648.267 92.4688 647.481 92.4688 646.696 92.48 646.05 91.8526 646.039 91.0674 646.039 91.0605 646.039 91.0537 646.039 91.0469ZM649.021 103.779C648.663 104.266 647.843 104.27 647.193 103.779 646.543 103.287 646.311 102.511 646.673 102.028 647.034 101.544 647.851 101.536 648.501 102.028 649.151 102.519 649.362 103.295 649.001 103.779ZM650.752 98.5219C649.939 98.5219 649.289 97.7094 649.289 96.6937 649.289 95.6781 649.943 94.8656 650.752 94.8656 651.56 94.8656 652.214 95.6781 652.214 96.6937 652.214 97.7094 651.56 98.5219 650.752 98.5219Z" fill="#3333CC"/></g></g></g></g></svg>