<svg width="423" height="152" xmlns="http://www.w3.org/2000/svg" xmlns:xlink="http://www.w3.org/1999/xlink" overflow="hidden"><defs><clipPath id="clip0"><rect x="237" y="138" width="423" height="152"/></clipPath><clipPath id="clip1"><rect x="237" y="162" width="83" height="83"/></clipPath><clipPath id="clip2"><rect x="237" y="162" width="83" height="83"/></clipPath><clipPath id="clip3"><rect x="237" y="162" width="83" height="83"/></clipPath><clipPath id="clip4"><rect x="259" y="194" width="39" height="39"/></clipPath><clipPath id="clip5"><rect x="259" y="194" width="39" height="39"/></clipPath><clipPath id="clip6"><rect x="259" y="194" width="39" height="39"/></clipPath></defs><g clip-path="url(#clip0)" transform="translate(-237 -138)"><g clip-path="url(#clip1)"><g clip-path="url(#clip2)"><g clip-path="url(#clip3)"><path d="M268.134 186.208 288.846 186.208 293.929 173.9C294.156 173.359 294.091 172.739 293.756 172.257 293.285 171.629 292.426 171.437 291.732 171.806L285.406 174.969 279.263 171.897C278.776 171.653 278.203 171.653 277.716 171.897L271.573 174.969 265.228 171.8C264.622 171.472 263.872 171.577 263.38 172.059 262.919 172.553 262.789 173.272 263.049 173.896Z" stroke="#000000" stroke-width="0.864583" fill="#FFFFFF"/><path d="M272.476 209.177C273.686 209.177 274.666 208.196 274.666 206.987 274.666 205.777 273.686 204.797 272.476 204.797 271.267 204.797 270.286 205.777 270.286 206.987 270.288 208.196 271.268 209.175 272.476 209.177Z" stroke="#000000" stroke-width="0.864583" fill="#FFFFFF"/><path d="M284.524 216.844C283.314 216.844 282.334 217.824 282.334 219.034 282.334 220.243 283.314 221.224 284.524 221.224 285.733 221.224 286.714 220.243 286.714 219.034 286.712 217.825 285.732 216.845 284.524 216.844Z" stroke="#000000" stroke-width="0.864583" fill="#FFFFFF"/><path d="M289.26 189.667 267.74 189.667C258.537 198.547 249.104 205.156 249.104 217.333 249.104 225.8 252.852 231.316 260.824 234.127 261.758 234.456 262.741 234.625 263.731 234.625L293.269 234.625C294.259 234.625 295.242 234.456 296.176 234.127 304.148 231.316 307.896 225.8 307.896 217.333 307.896 205.156 298.463 198.547 289.26 189.667ZM272.476 202.203C275.118 202.203 277.26 204.345 277.26 206.987 277.26 209.629 275.118 211.771 272.476 211.771 269.834 211.771 267.693 209.629 267.693 206.987 267.696 204.346 269.836 202.206 272.476 202.203ZM268.707 220.97 286.142 203.534 287.976 205.367 270.541 222.804ZM284.524 223.818C281.882 223.818 279.74 221.676 279.74 219.034 279.74 216.392 281.882 214.25 284.524 214.25 287.166 214.25 289.307 216.392 289.307 219.034 289.304 221.675 287.164 223.814 284.524 223.818Z" stroke="#000000" stroke-width="0.864583" fill="#FFFFFF"/></g></g></g><rect x="262" y="199" width="35" height="29" fill="#FFFFFF"/><g clip-path="url(#clip4)"><g clip-path="url(#clip5)"><g clip-path="url(#clip6)"><path d="M291.663 210.177C290.444 209.572 288.997 209.555 287.645 209.771 287.244 208.93 286.751 208.137 286.174 207.406 287.324 206.435 288.754 205.562 290.062 205.623 290.511 205.642 290.89 205.294 290.909 204.845 290.928 204.396 290.58 204.017 290.131 203.998L289.944 203.998C288.132 203.998 286.385 205.095 285.069 206.204 284.825 205.968 284.573 205.745 284.313 205.538 284.339 205.376 284.353 205.213 284.354 205.05 284.354 203.019 282.729 201.304 280.483 200.618 280.541 200.471 280.622 200.334 280.722 200.212 281.169 199.651 282.03 199.399 283.282 199.505 283.73 199.536 284.12 199.198 284.151 198.749 284.182 198.3 283.844 197.911 283.395 197.88 281.575 197.754 280.247 198.197 279.447 199.204 279.181 199.541 278.984 199.926 278.866 200.337 278.687 200.337 278.504 200.317 278.321 200.317 278.01 200.319 277.7 200.339 277.391 200.378 277.274 199.951 277.072 199.552 276.798 199.204 275.985 198.197 274.669 197.75 272.849 197.88 272.4 197.912 272.063 198.302 272.095 198.751 272.128 199.2 272.518 199.537 272.967 199.505 274.21 199.411 275.075 199.651 275.522 200.212 275.649 200.374 275.744 200.559 275.802 200.756 273.731 201.508 272.288 203.153 272.288 205.07 272.29 205.304 272.315 205.536 272.362 205.765 272.126 205.968 271.898 206.171 271.675 206.407 270.314 205.229 268.425 204.018 266.508 204.103 266.059 204.122 265.71 204.502 265.73 204.95 265.749 205.399 266.128 205.747 266.577 205.728 267.929 205.672 269.42 206.622 270.607 207.642 270.073 208.354 269.614 209.119 269.237 209.925 267.82 209.661 266.268 209.641 264.98 210.283 264.572 210.47 264.393 210.952 264.581 211.36 264.768 211.768 265.251 211.946 265.658 211.759 265.673 211.752 265.688 211.745 265.703 211.737 266.633 211.353 267.657 211.26 268.64 211.469 268.167 212.946 267.929 214.488 267.938 216.039 267.926 218.295 268.446 220.521 269.453 222.539 268.303 223.352 267.243 224.404 266.8 225.728 266.655 226.154 266.884 226.617 267.31 226.762 267.736 226.907 268.199 226.678 268.344 226.252 268.636 225.367 269.396 224.595 270.282 223.957 272.195 226.821 275.157 228.653 278.5 228.653 281.843 228.653 284.699 226.862 286.625 224.062 287.384 224.588 287.972 225.324 288.319 226.179 288.464 226.609 288.929 226.84 289.359 226.695 289.789 226.55 290.02 226.085 289.875 225.655 289.396 224.434 288.559 223.386 287.474 222.649 288.524 220.604 289.069 218.338 289.062 216.039 289.066 214.438 288.808 212.848 288.299 211.331 289.195 211.171 290.118 211.276 290.956 211.631 291.356 211.831 291.843 211.67 292.044 211.27 292.242 210.867 292.076 210.38 291.673 210.182 291.67 210.18 291.666 210.179 291.663 210.177ZM271.533 217.522C270.72 217.522 270.07 216.709 270.07 215.694 270.07 214.678 270.724 213.866 271.533 213.866 272.341 213.866 272.995 214.678 272.995 215.694 272.995 216.709 272.341 217.522 271.533 217.522ZM275.112 222.803C274.462 223.283 273.645 223.278 273.284 222.803 272.922 222.328 273.158 221.532 273.804 221.052 274.45 220.573 275.27 220.577 275.632 221.052 275.993 221.527 275.762 222.312 275.112 222.791ZM274.844 211.469C274.058 211.469 273.422 210.832 273.422 210.047 273.422 209.262 274.058 208.625 274.844 208.625 275.629 208.625 276.266 209.262 276.266 210.047 276.266 210.832 275.629 211.469 274.844 211.469ZM279.312 226.979C278.771 227.012 278.229 227.012 277.688 226.979L277.688 205.781 279.312 205.781ZM281.059 210.047C281.059 209.262 281.696 208.625 282.481 208.625 283.267 208.625 283.903 209.262 283.903 210.047 283.903 210.832 283.267 211.469 282.481 211.469 281.696 211.48 281.05 210.853 281.039 210.067 281.039 210.061 281.039 210.054 281.039 210.047ZM284.021 222.779C283.663 223.266 282.843 223.27 282.193 222.779 281.543 222.287 281.311 221.511 281.673 221.028 282.034 220.544 282.851 220.536 283.501 221.028 284.151 221.519 284.362 222.295 284.001 222.779ZM285.752 217.522C284.939 217.522 284.289 216.709 284.289 215.694 284.289 214.678 284.943 213.866 285.752 213.866 286.56 213.866 287.214 214.678 287.214 215.694 287.214 216.709 286.56 217.522 285.752 217.522Z" fill="#3333CC"/></g></g></g><text fill="#FFFFFF" font-family="Calibri,Calibri_MSFontService,sans-serif" font-weight="700" font-size="72" transform="translate(329.972 227)">BugHuntr</text></g></svg>